<?xml version="1.0" encoding="UTF-8" standalone="no"?>
<!DOCTYPE svg PUBLIC "-//W3C//DTD SVG 1.1//EN" "http://www.w3.org/Graphics/SVG/1.1/DTD/svg11.dtd">
<svg width="100%" height="100%" viewBox="0 0 1280 800" version="1.1" xmlns="http://www.w3.org/2000/svg" xmlns:xlink="http://www.w3.org/1999/xlink" xml:space="preserve" xmlns:serif="http://www.serif.com/" style="fill-rule:evenodd;clip-rule:evenodd;stroke-linejoin:round;stroke-miterlimit:2;">
    <g transform="matrix(1,0,0,1,37.8236,43.8571)">
        <path d="M602.178,222.247C602.178,208.449 590.976,197.247 577.178,197.247L147.809,197.247C134.011,197.247 122.809,208.449 122.809,222.247L122.809,592.882C122.809,606.68 134.011,617.882 147.809,617.882L577.178,617.882C590.976,617.882 602.178,606.68 602.178,592.882L602.178,222.247Z" style="fill:rgb(127,127,127);"/>
        <g transform="matrix(1,0,0,1,-10.0863,-144.896)">
            <path d="M1091.63,359.805C1091.63,352.929 1086.05,347.346 1079.17,347.346L679.305,347.346C672.428,347.346 666.846,352.929 666.846,359.805C666.846,366.681 672.428,372.264 679.305,372.264L1079.17,372.264C1086.05,372.264 1091.63,366.681 1091.63,359.805Z" style="fill:rgb(127,127,127);"/>
        </g>
        <g transform="matrix(1,0,0,1,-10.0863,1.81362)">
            <path d="M1091.63,359.805C1091.63,352.929 1086.05,347.346 1079.17,347.346L679.305,347.346C672.428,347.346 666.846,352.929 666.846,359.805C666.846,366.681 672.428,372.264 679.305,372.264L1079.17,372.264C1086.05,372.264 1091.63,366.681 1091.63,359.805Z" style="fill:rgb(127,127,127);"/>
        </g>
        <g transform="matrix(1,0,0,1,-11.2723,-144.896)">
            <path d="M921.956,404.598C921.956,398.213 916.772,393.029 910.387,393.029L679.601,393.029C673.216,393.029 668.032,398.213 668.032,404.598C668.032,410.983 673.216,416.167 679.601,416.167L910.387,416.167C916.772,416.167 921.956,410.983 921.956,404.598Z" style="fill:rgb(127,127,127);"/>
        </g>
        <g transform="matrix(1,0,0,1,-13.6463,-144.896)">
            <path d="M998.489,453.84C998.489,446.8 992.773,441.085 985.733,441.085L683.161,441.085C676.121,441.085 670.406,446.8 670.406,453.84C670.406,460.88 676.121,466.596 683.161,466.596L985.733,466.596C992.773,466.596 998.489,460.88 998.489,453.84Z" style="fill:rgb(127,127,127);"/>
        </g>
        <g transform="matrix(1,0,0,1,-13.6463,-39.7641)">
            <path d="M998.489,453.84C998.489,446.8 992.773,441.085 985.733,441.085L683.161,441.085C676.121,441.085 670.406,446.8 670.406,453.84C670.406,460.88 676.121,466.596 683.161,466.596L985.733,466.596C992.773,466.596 998.489,460.88 998.489,453.84Z" style="fill:rgb(127,127,127);"/>
        </g>
        <g transform="matrix(0.931498,0,0,1,8.91061,-18.413)">
            <path d="M1101.22,137.817C1101.22,124.019 1089.19,112.817 1074.38,112.817L156.917,112.817C142.105,112.817 130.079,124.019 130.079,137.817L130.079,156.123C130.079,169.921 142.105,181.123 156.917,181.123L1074.38,181.123C1089.19,181.123 1101.22,169.921 1101.22,156.123L1101.22,137.817Z" style="fill:rgb(127,127,127);"/>
        </g>
    </g>
</svg>
