<?xml version="1.0" encoding="UTF-8" standalone="no"?>
<!DOCTYPE svg PUBLIC "-//W3C//DTD SVG 1.1//EN" "http://www.w3.org/Graphics/SVG/1.1/DTD/svg11.dtd">
<svg width="100%" height="100%" viewBox="0 0 1280 800" version="1.1" xmlns="http://www.w3.org/2000/svg" xmlns:xlink="http://www.w3.org/1999/xlink" xml:space="preserve" xmlns:serif="http://www.serif.com/" style="fill-rule:evenodd;clip-rule:evenodd;stroke-linejoin:round;stroke-miterlimit:2;">
    <g transform="matrix(1.19053,0,0,1,313.292,79.3511)">
        <path d="M524.459,54.349C524.459,40.551 515.05,29.349 503.46,29.349L56.596,29.349C45.006,29.349 35.597,40.551 35.597,54.349L35.597,96.307C35.597,110.105 45.006,121.307 56.596,121.307L503.46,121.307C515.05,121.307 524.459,110.105 524.459,96.307L524.459,54.349Z" style="fill:rgb(127,127,127);"/>
    </g>
    <g transform="matrix(1.19053,0,0,0.303226,313.292,500.857)">
        <path d="M524.459,75.328C524.459,49.951 519.211,29.349 512.748,29.349L47.308,29.349C40.844,29.349 35.597,49.951 35.597,75.328C35.597,100.705 40.844,121.307 47.308,121.307L512.748,121.307C519.211,121.307 524.459,100.705 524.459,75.328Z" style="fill:rgb(127,127,127);"/>
    </g>
    <g transform="matrix(1.11044,0,0,0.303226,316.736,550.1)">
        <path d="M524.459,75.328C524.459,49.951 518.833,29.349 511.903,29.349L48.152,29.349C41.223,29.349 35.597,49.951 35.597,75.328C35.597,100.705 41.223,121.307 48.152,121.307L511.903,121.307C518.833,121.307 524.459,100.705 524.459,75.328Z" style="fill:rgb(127,127,127);"/>
    </g>
    <g transform="matrix(1.22451,0,0,0.303226,312.675,600.528)">
        <path d="M524.459,75.328C524.459,49.951 519.357,29.349 513.073,29.349L46.983,29.349C40.699,29.349 35.597,49.951 35.597,75.328C35.597,100.705 40.699,121.307 46.983,121.307L513.073,121.307C519.357,121.307 524.459,100.705 524.459,75.328Z" style="fill:rgb(127,127,127);"/>
    </g>
    <g transform="matrix(1.19053,0,0,0.303226,313.885,654.517)">
        <path d="M524.459,75.328C524.459,49.951 519.211,29.349 512.748,29.349L47.308,29.349C40.844,29.349 35.597,49.951 35.597,75.328C35.597,100.705 40.844,121.307 47.308,121.307L512.748,121.307C519.211,121.307 524.459,100.705 524.459,75.328Z" style="fill:rgb(127,127,127);"/>
    </g>
    <g transform="matrix(1.88471,0,0,2.8129,127.506,138.868)">
        <path d="M524.459,38.236C524.459,33.331 518.515,29.349 511.194,29.349L48.861,29.349C41.54,29.349 35.597,33.331 35.597,38.236L35.597,112.419C35.597,117.325 41.54,121.307 48.861,121.307L511.194,121.307C518.515,121.307 524.459,117.325 524.459,112.419L524.459,38.236Z" style="fill:rgb(127,127,127);"/>
    </g>
</svg>
