<?xml version="1.0" encoding="UTF-8" standalone="no"?><!DOCTYPE svg PUBLIC "-//W3C//DTD SVG 1.1//EN" "http://www.w3.org/Graphics/SVG/1.1/DTD/svg11.dtd"><svg width="100%" height="100%" viewBox="0 0 1200 900" version="1.1" xmlns="http://www.w3.org/2000/svg" xmlns:xlink="http://www.w3.org/1999/xlink" xml:space="preserve" xmlns:serif="http://www.serif.com/" style="fill-rule:evenodd;clip-rule:evenodd;stroke-linejoin:round;stroke-miterlimit:1.41421;"><rect x="0" y="0" width="1200" height="900" style="fill:#fff;"/><path d="M734.756,649.81c-94.322,63.892 -223.814,54.079 -307.333,-29.44c-94.638,-94.639 -94.638,-248.308 0,-342.947c94.639,-94.638 248.308,-94.638 342.947,0c83.519,83.519 93.332,213.011 29.44,307.333l43.746,43.746l-65.054,65.054l-43.746,-43.746Zm-241.925,-306.979c58.539,-58.54 153.592,-58.54 212.132,0c58.539,58.539 58.539,153.592 0,212.132c-58.54,58.539 -153.593,58.539 -212.132,0c-58.54,-58.54 -58.54,-153.593 0,-212.132Z"/></svg>