<?xml version="1.0" encoding="UTF-8" standalone="no"?><!DOCTYPE svg PUBLIC "-//W3C//DTD SVG 1.1//EN" "http://www.w3.org/Graphics/SVG/1.1/DTD/svg11.dtd"><svg width="100%" height="100%" viewBox="0 0 1280 800" version="1.1" xmlns="http://www.w3.org/2000/svg" xmlns:xlink="http://www.w3.org/1999/xlink" xml:space="preserve" xmlns:serif="http://www.serif.com/" style="fill-rule:evenodd;clip-rule:evenodd;stroke-linejoin:round;stroke-miterlimit:1.41421;"><rect x="334.336" y="285.794" width="611.329" height="86.115" style="fill:#b4b9be;"/><rect x="334.336" y="0" width="611.329" height="86.115" style="fill:#b4b9be;"/><g><rect x="334.336" y="21.952" width="101.348" height="42.211" style="fill:#23282d;"/><rect x="455.337" y="21.952" width="51.708" height="42.211" style="fill:#23282d;"/><rect x="527.918" y="21.952" width="183.921" height="42.211" style="fill:#23282d;"/></g><rect x="334.336" y="142.452" width="611.329" height="86.115" style="fill:#b4b9be;"/><rect x="334.336" y="713.885" width="611.329" height="86.115" style="fill:#b4b9be;"/><rect x="334.336" y="428.09" width="611.329" height="86.115" style="fill:#b4b9be;"/><rect x="334.336" y="570.542" width="611.329" height="86.115" style="fill:#b4b9be;"/><g><rect x="568.161" y="164.404" width="101.348" height="42.211" style="fill:#23282d;"/><rect x="689.163" y="164.404" width="51.708" height="42.211" style="fill:#23282d;"/><rect x="761.743" y="164.404" width="183.921" height="42.211" style="fill:#23282d;"/></g><g><rect x="448.447" y="307.747" width="101.348" height="42.211" style="fill:#23282d;"/><rect x="568.161" y="307.747" width="51.708" height="42.211" style="fill:#23282d;"/><rect x="641.861" y="307.747" width="183.921" height="42.211" style="fill:#23282d;"/></g><g><rect x="334.336" y="450.043" width="101.348" height="42.211" style="fill:#23282d;"/><rect x="577.988" y="450.043" width="51.708" height="42.211" style="fill:#23282d;"/><rect x="761.743" y="450.043" width="183.921" height="42.211" style="fill:#23282d;"/></g><g><rect x="378.509" y="592.494" width="101.348" height="42.211" style="fill:#23282d;"/><rect x="570.085" y="592.494" width="51.708" height="42.211" style="fill:#23282d;"/><rect x="720.155" y="592.494" width="183.921" height="42.211" style="fill:#23282d;"/></g><g><rect x="397.642" y="735.837" width="101.348" height="42.211" style="fill:#23282d;"/><rect x="570.747" y="735.837" width="51.708" height="42.211" style="fill:#23282d;"/><rect x="689.549" y="735.837" width="183.921" height="42.211" style="fill:#23282d;"/></g></svg>